<?xml version="1.0" encoding="UTF-8" standalone="no"?>
<!-- Created with Inkscape (http://www.inkscape.org/) -->

<svg
   version="1.1"
   id="svg2"
   width="1600"
   height="1600"
   viewBox="0 0 1600 1600"
   sodipodi:docname="install.png.svg"
   inkscape:version="1.1.1 (3bf5ae0d25, 2021-09-20)"
   xmlns:inkscape="http://www.inkscape.org/namespaces/inkscape"
   xmlns:sodipodi="http://sodipodi.sourceforge.net/DTD/sodipodi-0.dtd"
   xmlns="http://www.w3.org/2000/svg"
   xmlns:svg="http://www.w3.org/2000/svg">
  <defs
     id="defs6" />
  <sodipodi:namedview
     id="namedview4"
     pagecolor="#505050"
     bordercolor="#eeeeee"
     borderopacity="1"
     inkscape:pageshadow="0"
     inkscape:pageopacity="0"
     inkscape:pagecheckerboard="0"
     showgrid="false"
     inkscape:zoom="0.1521875"
     inkscape:cx="588.09035"
     inkscape:cy="831.2115"
     inkscape:window-width="1360"
     inkscape:window-height="716"
     inkscape:window-x="0"
     inkscape:window-y="24"
     inkscape:window-maximized="1"
     inkscape:current-layer="g8" />
  <g
     inkscape:groupmode="layer"
     inkscape:label="Image"
     id="g8">
    <path
       style="fill:#ff0059;stroke-width:1.33333;fill-opacity:1"
       d="m 1383.3333,1466.1264 c -8.6166,-2.1287 -17.6332,-6.1909 -25.6222,-11.5437 -3.5078,-2.3503 -116.7778,-114.5252 -251.7111,-249.2776 L 860.66667,960.30067 848.88105,954.54009 c -10.83536,-5.29612 -12.79689,-5.80481 -24.328,-6.30914 -10.64868,-0.46574 -14.20402,-0.0384 -23.54772,2.82998 -16.9254,5.19596 -25.13148,6.47846 -41.37736,6.46671 -40.01314,-0.0289 -76.51973,-17.08188 -107.33549,-50.13851 -28.46384,-30.53368 -46.30943,-74.56372 -49.16999,-121.31608 -0.79798,-13.04209 -0.69914,-13.74058 2.70804,-19.13793 1.94494,-3.08099 3.90886,-5.60179 4.36426,-5.60179 0.4554,0 12.89788,7.74404 27.64994,17.20899 78.53111,50.38565 74.91716,48.46277 92.53664,49.23636 10.40116,0.45665 13.70646,0.0635 20.66667,-2.45836 21.50436,-7.79155 40.77971,-28.01367 54.99224,-57.69339 8.14476,-17.00852 11.01637,-32.10254 8.88695,-46.71249 -3.0191,-20.71395 -12.56192,-34.76789 -31.84079,-46.89263 -5.73087,-3.60421 -26.16927,-16.90645 -45.41865,-29.56052 -34.20658,-22.48654 -34.96503,-23.0817 -33.50314,-26.29021 2.52143,-5.53391 28.26332,-15.93315 53.19418,-21.48943 15.0757,-3.35989 50.83382,-4.19278 67.36849,-1.56918 28.66236,4.54794 52.48177,13.7753 75.83553,29.37781 32.46063,21.68673 54.29335,50.629 63.4988,84.17639 4.07395,14.84668 5.11011,47.03909 2.05994,64 -7.60063,42.26432 -7.44254,50.62086 1.29792,68.60408 4.78585,9.84673 10.18956,15.36804 251.91379,257.39595 241.7111,242.0146 247.1283,247.5497 251.9131,257.3944 21.7472,44.7444 -2.5832,97.6701 -50.5265,109.9101 -9.3903,2.3973 -27.9974,2.4745 -37.3866,0.1552 z m 33.1432,-36.2679 c 8.6323,-2.9413 19.7187,-13.3529 23.6016,-22.165 4.6403,-10.531 4.4507,-24.5272 -0.4686,-34.5819 -4.0527,-8.2833 -11.0612,-15.3489 -19.8827,-20.0443 -4.7461,-2.5262 -7.7816,-3.0477 -17.7268,-3.0454 -10.414,0 -12.8923,0.472 -18.7513,3.5534 -8.0815,4.2504 -15.8422,12.4931 -19.7047,20.9282 -4.0528,8.8506 -3.9009,23.6826 0.3399,33.19 3.7918,8.501 14.9998,19.2182 23.0938,22.0828 7.5932,2.687 21.7382,2.7265 29.4988,0.083 z m -702.16387,-4.6426 c -12.27111,-2.891 -24.60323,-12.7552 -30.07336,-24.055 -1.90671,-3.9388 -7.27099,-27.8033 -15.12739,-67.2985 -6.69517,-33.6577 -12.58039,-61.6618 -13.07824,-62.2315 -0.49787,-0.5697 -8.65911,-3.0954 -18.13609,-5.6128 -33.06636,-8.7834 -64.48682,-20.6083 -93.789,-35.297 -8.92694,-4.475 -16.92563,-7.7068 -17.77487,-7.182 -0.84925,0.5249 -22.87175,17.1589 -48.93888,36.9645 -26.06715,19.8056 -50.68685,37.8166 -54.71048,40.0244 -10.08536,5.534 -26.26476,6.4761 -37.63011,2.1911 -8.35477,-3.15 -5.84045,-0.9685 -65.03266,-56.4256 -39.83358,-37.32 -45.55222,-43.5838 -48.86752,-53.526 -2.93214,-8.793 -2.72154,-22.4014 0.47616,-30.7675 1.40148,-3.6667 18.18302,-30.0985 37.29233,-58.7375 l 34.74421,-52.0707 -9.94012,-17.2626 c -17.32721,-30.0913 -33.19233,-65.45032 -43.19178,-96.26253 -2.43938,-7.51667 -5.05764,-13.66942 -5.81836,-13.67278 -6.6987,-0.0296 -125.55684,-17.7215 -130.4771,-19.42138 -14.47745,-5.00176 -28.26894,-23.38238 -29.73918,-39.63492 -1.60271,-17.71678 -4.16031,-128.91402 -3.09613,-134.61032 2.47577,-13.25215 12.54078,-26.53979 24.40726,-32.22202 4.80659,-2.30161 25.18519,-6.93068 68.18868,-15.48932 33.73333,-6.71366 61.45777,-12.32318 61.60985,-12.4656 0.15208,-0.14241 2.36098,-8.33449 4.90864,-18.20462 8.37987,-32.46522 19.2064,-61.90923 34.24268,-93.12703 C 319.84253,548.26896 324,539.13231 324,538.51503 c 0,-0.61728 -17.17799,-23.7857 -38.17329,-51.48535 -20.99532,-27.69965 -39.39587,-53.06301 -40.89011,-56.36301 -2.01507,-4.45023 -2.7452,-8.961 -2.82671,-17.46366 -0.17966,-18.74138 1.30878,-20.8584 53.89011,-76.64813 42.66691,-45.27035 45.11148,-47.61216 54.60201,-52.30684 9.26766,-4.58443 10.74612,-4.91229 22,-4.87883 10.29334,0.0307 13.05122,0.54018 18.78419,3.47078 3.69575,1.88918 29.35821,18.53533 57.02772,36.99142 l 50.30819,33.55654 12.7678,-7.51426 c 28.19773,-16.59525 82.40401,-40.61428 103.83996,-46.0119 4.15916,-1.0473 6.61568,-2.50434 7.38794,-4.38206 0.63634,-1.54718 2.7348,-14.51306 4.66326,-28.81306 11.08049,-82.1649 13.72636,-98.30952 17.25166,-105.26638 6.86914,-13.55558 19.64248,-22.49434 36.03394,-25.21648 9.6792,-1.60741 123.77822,-4.87655 134.92472,-3.86582 9.53076,0.86422 19.86066,5.80073 26.92881,12.86888 9.49183,9.49182 11.12141,14.91964 23.46177,78.14646 6.29768,32.26667 11.89927,60.0803 12.44798,61.80806 0.85977,2.70724 3.11016,3.68793 16.28385,7.09629 34.22836,8.85571 65.97265,20.73773 97.17328,36.3724 9.57452,4.79779 17.93382,8.72325 18.57622,8.72325 0.6425,0 23.301,-16.77861 50.3524,-37.2858 27.0514,-20.50717 51.8267,-38.55366 55.0562,-40.10329 12.7728,-6.12875 28.3286,-5.74211 41.131,1.02231 7.515,3.97064 98.4985,88.5863 103.9395,96.66474 7.6704,11.38875 9.715,29.11411 4.8102,41.70204 -1.4287,3.66667 -18.2917,30.18735 -37.4735,58.93486 l -34.8758,52.26817 8.188,13.73183 c 16.7972,28.16974 35.8767,71.11478 46.5496,104.77584 2.3223,7.32398 3.7484,9.85104 5.8024,10.28173 1.4978,0.31407 29.5318,4.20623 62.2978,8.64923 32.7658,4.44301 62.082,8.96293 65.1469,10.04429 12.0991,4.2688 23.13,15.41656 27.918,28.21373 2.4935,6.66446 2.9187,13.01576 4.7895,71.54038 1.1292,35.32464 1.6686,66.92661 1.1989,70.22661 -1.2693,8.91724 -7.8565,21.65961 -14.124,27.32187 -9.8321,8.88281 -15.6511,10.5724 -80.7711,23.45286 l -61.4722,12.15892 -2.7544,10.98243 c -4.4958,17.92525 -11.6549,40.626 -17.933,56.86389 -6.4848,16.77254 -19.8532,46.52663 -20.9115,46.54293 -0.3695,0.01 -29.7225,-29.04487 -65.2289,-64.55691 l -64.5571,-64.56735 3.5105,-14.43265 c 7.3165,-30.08096 10.2806,-53.82194 10.2806,-82.34236 0,-127.00802 -71.4533,-242.07044 -185.47639,-298.67566 C 810.56908,428.47927 684.66525,435.72555 586.66667,499.69421 505.30447,552.80347 451.90224,636.8548 437.79989,734 c -2.8806,19.84317 -3.24246,67.32439 -0.65544,86 5.29454,38.22088 16.23367,74.29452 32.32562,106.59908 18.14505,36.42617 37.77077,63.32575 66.70046,91.42162 53.22947,51.6951 116.77254,82.19 191.82947,92.0607 22.9378,3.0165 71.07039,2.0468 94,-1.8937 25.294,-4.347 46.88329,-10.4455 74.36279,-21.0061 l 6.36277,-2.4453 61.97056,61.9598 c 34.0838,34.0779 61.97058,62.5875 61.97058,63.3547 0,1.6351 -26.85838,16.4685 -46.00003,25.405 -16.42814,7.6697 -46.04895,19.2786 -58.98787,23.1182 -7.66272,2.2739 -9.79063,3.473 -10.31427,5.8122 -0.36285,1.6209 -4.28472,29.3471 -8.71524,61.6138 -4.43053,32.2667 -8.98846,61.6303 -10.12874,65.2525 -4.15675,13.2043 -14.33836,23.9415 -27.55952,29.0632 -6.24702,2.4202 -12.49995,2.8768 -60.96103,4.4532 -61.94099,2.015 -82.59556,2.1179 -89.68737,0.447 z"
       id="path12" />
  </g>
</svg>
